<?xml version="1.0" encoding="UTF-8" standalone="no"?><!DOCTYPE svg PUBLIC "-//W3C//DTD SVG 1.1//EN" "http://www.w3.org/Graphics/SVG/1.1/DTD/svg11.dtd"><svg width="100%" height="100%" viewBox="0 0 87 12" version="1.1" xmlns="http://www.w3.org/2000/svg" xmlns:xlink="http://www.w3.org/1999/xlink" xml:space="preserve" xmlns:serif="http://www.serif.com/" style="fill-rule:evenodd;clip-rule:evenodd;stroke-linejoin:round;stroke-miterlimit:1.41421;"><g id="Layer-1" serif:id="Layer 1"><path d="M86.4,3.57l0,-3.57l-8.028,0c-0.009,0 -0.02,0.001 -0.032,0.001l-0.068,0c-1.041,0 -1.977,0.452 -2.625,1.17c-0.566,0.627 -0.911,1.457 -0.911,2.366l0,0.313c0.056,0.665 0.292,1.277 0.665,1.787c0.006,0.009 0.012,0.018 0.018,0.027c0.046,0.061 0.092,0.12 0.142,0.177c0.44,0.522 1.029,0.915 1.701,1.113c0.317,0.093 0.653,0.142 0.998,0.142l4.604,0c0.549,0 0.995,0.44 1.011,0.985c-0.016,0.504 -0.398,0.918 -0.892,0.976l-4.713,0c-0.414,0 -0.769,-0.251 -0.926,-0.609c-0.007,-0.016 -0.015,-0.033 -0.019,-0.051c-0.004,-0.01 -0.008,-0.019 -0.011,-0.029c-0.03,-0.091 -0.049,-0.187 -0.051,-0.287c0,0.006 0,0.013 -0.001,0.017c0,-0.017 -0.002,-0.035 -0.002,-0.052l0,-0.034l-2.525,0l0,3.572l3.309,0c0.075,0.005 0.152,0.007 0.228,0.007l4.592,0c1.765,0 3.234,-1.302 3.494,-2.997c0.027,-0.167 0.041,-0.339 0.041,-0.513c0,-0.241 -0.026,-0.477 -0.076,-0.703c-0.121,-0.583 -0.389,-1.114 -0.76,-1.551c-0.648,-0.767 -1.617,-1.256 -2.699,-1.256l-0.008,0l-4.584,0l-0.01,0l-0.002,0c-0.506,0 -0.923,-0.373 -0.998,-0.857l0,-0.177c0,-0.557 0.453,-1.011 1.01,-1.011l4.592,0c0.092,0 0.182,0.013 0.265,0.037c0.004,0 0.006,0.001 0.01,0.002c0.027,0.007 0.051,0.015 0.075,0.025c0.005,0.001 0.008,0.003 0.013,0.004c0.025,0.01 0.046,0.019 0.07,0.031c0.005,0.002 0.008,0.003 0.013,0.006c0.023,0.011 0.046,0.023 0.068,0.037c0.002,0.002 0.005,0.004 0.009,0.006c0.023,0.013 0.046,0.028 0.067,0.043c0.002,0.002 0.002,0.002 0.004,0.003c0.212,0.155 0.363,0.392 0.402,0.663c0.008,0.05 0.015,0.101 0.015,0.153l0,0.034l2.525,0" style="fill:#4267b1;fill-rule:nonzero;"/><path d="M72.825,4.266l0,-0.713l0,-0.003c0,-0.555 0.453,-1.008 1.008,-1.008l0.057,0l0,-2.51l-1.065,0l-2.526,0l-1.066,0l0,2.51l0.055,0c0.555,0 1.01,0.453 1.011,1.008l0,4.492c-0.001,0.558 -0.456,1.009 -1.011,1.009l-3.442,0c-0.557,0 -1.009,-0.454 -1.009,-1.011l0,-4.487c0,-0.558 0.452,-1.011 1.009,-1.011l0.056,0l0,-2.51l-3.591,0l0,8.008c0,1.95 1.585,3.536 3.535,3.536l3.409,0l0,0.005l4.613,0l0,-2.526l-0.035,0c-0.553,0 -1.008,-0.453 -1.008,-1.007l0,-0.008l0,-3.774" style="fill:#4267b1;fill-rule:nonzero;"/><path d="M53.25,0.025c-1.949,0 -3.536,1.586 -3.536,3.536l0,4.491c0,1.95 1.587,3.536 3.536,3.536l4.593,0c1.948,0 3.535,-1.586 3.535,-3.536l0,-4.491c0,-1.95 -1.587,-3.536 -3.535,-3.536l-4.593,0m-1.012,8.027l0,-4.491c0,-0.557 0.455,-1.01 1.012,-1.01l4.593,0c0.557,0 1.009,0.453 1.009,1.01l0,4.491c0,0.557 -0.452,1.011 -1.009,1.011l-4.593,0c-0.557,0 -1.012,-0.454 -1.012,-1.011" style="fill:#4267b1;fill-rule:nonzero;"/><path d="M45.248,0.027l0,2.526l0.033,0c0.559,0 1.012,0.453 1.012,1.01l0,4.492c0,0.557 -0.453,1.01 -1.012,1.01l-0.056,0l0,2.525l3.593,0l0,-3.535l0,-8.028l-3.57,0" style="fill:#4267b1;fill-rule:nonzero;"/><path d="M40.79,0.045l-3.409,0l0,-0.003l-1.043,0l-2.526,0l-1.044,0l0,2.525l0.034,0c0.555,0 1.008,0.451 1.01,1.006l0,4.498c-0.002,0.557 -0.455,1.009 -1.01,1.009l-0.057,0l0,2.51l4.659,0l0,-2.51l-0.057,0c-0.555,0 -1.008,-0.452 -1.009,-1.009l0,-0.002l0,-4.491c0.001,-0.555 0.454,-1.006 1.009,-1.006l3.443,0c0.557,0 1.011,0.452 1.011,1.009l0,4.488l-0.002,0c0,0.557 -0.452,1.011 -1.009,1.011l-0.057,0l0,2.51l3.592,0l0,-0.018l0.001,0l0,-7.991c0,-1.95 -1.586,-3.536 -3.536,-3.536" style="fill:#4267b1;fill-rule:nonzero;"/><path d="M31.927,8.069l0,-4.488c0,-1.95 -1.587,-3.536 -3.536,-3.536l-3.442,0c-0.865,0 -1.659,0.314 -2.274,0.831c-0.614,-0.517 -1.408,-0.831 -2.272,-0.831l-3.408,0l0,-0.003l-1.045,0l-2.525,0l-1.045,0l0,2.526l0.034,0c0.557,0 1.009,0.451 1.011,1.007l0,0.005l-0.001,0.001l0,3.774l0.001,0l0,0.716c-0.002,0.557 -0.454,1.009 -1.011,1.009l-0.056,0l0,2.51l4.658,0l0,-2.51l-0.056,0c-0.555,0 -1.009,-0.452 -1.01,-1.009l0,-0.002l0,-4.491c0.001,-0.555 0.455,-1.006 1.01,-1.006l3.443,0c0.556,0 1.007,0.451 1.009,1.006l0,4.624c-0.065,0.494 -0.487,0.878 -0.999,0.878l-0.057,0l0,2.51l3.592,0l0,-3.521l-0.009,0l0,-4.488l0,-0.004c0.002,-0.555 0.454,-1.005 1.01,-1.005l3.442,0c0.557,0 1.011,0.453 1.011,1.009l0,4.621c-0.066,0.494 -0.49,0.878 -1.002,0.878l-0.056,0l0,2.51l3.593,0l0,-3.521l-0.01,0" style="fill:#4267b1;fill-rule:nonzero;"/><path d="M3.536,0.027c-1.949,0 -3.536,1.586 -3.536,3.536l0,4.492c0,1.949 1.587,3.535 3.536,3.535l4.592,0c1.95,0 3.536,-1.586 3.536,-3.535l0,-4.492c0,-1.95 -1.586,-3.536 -3.536,-3.536l-4.592,0m-1.01,8.028l0,-4.492c0,-0.557 0.453,-1.01 1.01,-1.01l4.592,0c0.556,0 1.011,0.453 1.011,1.01l0,4.492c0,0.557 -0.455,1.01 -1.011,1.01l-4.592,0c-0.557,0 -1.01,-0.453 -1.01,-1.01" style="fill:#4267b1;fill-rule:nonzero;"/></g></svg>